<?xml version="1.0" encoding="utf-8"?>
<!DOCTYPE svg PUBLIC "-//W3C//DTD SVG 1.1//EN" "http://www.w3.org/Graphics/SVG/1.1/DTD/svg11.dtd">
<svg version="1.1" baseProfile="full"
 xmlns="http://www.w3.org/2000/svg"
 xmlns:xlink="http://www.w3.org/1999/xlink"
 xmlns:ev="http://www.w3.org/2001/xml-events" 
  height="17px" 
  width="16px" 
>
<path fill="rgb( 255, 255, 255 )"
 d="M4.00199999999995,16.0659999999998 C4.00199999999995,16.0659999999998 0.79899999999998,16.0659999999998 0.79899999999998,16.0659999999998 C0.79899999999998,16.0659999999998 0.79899999999998,5.9970000000003 0.79899999999998,5.9970000000003 C0.79899999999998,5.9970000000003 4.00199999999995,5.9970000000003 4.00199999999995,5.9970000000003 C4.00199999999995,5.9970000000003 4.00199999999995,16.0659999999998 4.00199999999995,16.0659999999998 ZM2.40100000000007,4.62100000000009 C1.375,4.62100000000009 0.54600000000005,3.80799999999999 0.54600000000005,2.80599999999959 C0.54600000000005,1.80500000000029 1.375,0.99200000000019 2.40100000000007,0.99200000000019 C3.42399999999998,0.99200000000019 4.25600000000009,1.80500000000029 4.25600000000009,2.80599999999959 C4.25600000000009,3.80799999999999 3.42399999999998,4.62100000000009 2.40100000000007,4.62100000000009 ZM15.9939999999999,16.0659999999998 C15.9939999999999,16.0659999999998 12.7940000000001,16.0659999999998 12.7940000000001,16.0659999999998 C12.7940000000001,16.0659999999998 12.7940000000001,11.1689999999999 12.7940000000001,11.1689999999999 C12.7940000000001,10.0010000000002 12.7719999999999,8.5 11.1300000000001,8.5 C9.46399999999994,8.5 9.21000000000004,9.77199999999993 9.21000000000004,11.085 C9.21000000000004,11.085 9.21000000000004,16.0659999999998 9.21000000000004,16.0659999999998 C9.21000000000004,16.0659999999998 6.00999999999999,16.0659999999998 6.00999999999999,16.0659999999998 C6.00999999999999,16.0659999999998 6.00999999999999,5.9970000000003 6.00999999999999,5.9970000000003 C6.00999999999999,5.9970000000003 9.07999999999993,5.9970000000003 9.07999999999993,5.9970000000003 C9.07999999999993,5.9970000000003 9.07999999999993,7.3739999999998 9.07999999999993,7.3739999999998 C9.07999999999993,7.3739999999998 9.12400000000002,7.3739999999998 9.12400000000002,7.3739999999998 C9.55199999999991,6.58100000000013 10.596,5.74799999999959 12.153,5.74799999999959 C15.395,5.74799999999959 15.9939999999999,7.83200000000033 15.9939999999999,10.5439999999999 C15.9939999999999,10.5439999999999 15.9939999999999,16.0659999999998 15.9939999999999,16.0659999999998 Z "/>
</svg>
