<?xml version="1.0" encoding="UTF-8" standalone="no"?>
<svg width="200px" height="200px" viewBox="0 0 200 200" version="1.1" xmlns="http://www.w3.org/2000/svg" xmlns:xlink="http://www.w3.org/1999/xlink" xmlns:sketch="http://www.bohemiancoding.com/sketch/ns">
    <!-- Generator: Sketch 3.4.4 (17249) - http://www.bohemiancoding.com/sketch -->
    <title>3</title>
    <desc>Created with Sketch.</desc>
    <defs></defs>
    <g id="Page-1" stroke="none" stroke-width="1" fill="none" fill-rule="evenodd" sketch:type="MSPage">
        <g id="Big" sketch:type="MSArtboardGroup" transform="translate(-200.000000, -400.000000)">
            <g id="1" sketch:type="MSLayerGroup" transform="translate(200.000000, 400.000000)">
                <rect id="Rectangle-107" opacity="0" fill="#D8D8D8" sketch:type="MSShapeGroup" x="0" y="0" width="200" height="200"></rect>
                <path d="M131,143 L7.00944592,143 C3.69052058,143 1,140.309672 1,136.991614 L1,27.008386 C1,23.690046 3.67668944,21 7.0042685,21 L154.995731,21 C158.311797,21 161,23.6879063 161,27.0073625 L161,105" id="Rectangle-12" stroke="#134FC3" stroke-width="2" stroke-linecap="round" stroke-linejoin="round" sketch:type="MSShapeGroup"></path>
                <path d="M155,43 L155,121 L7,121 L7,27 L129.5,27" id="Rectangle-12-Copy" stroke="#134FC3" stroke-width="2" stroke-linecap="round" stroke-linejoin="round" sketch:type="MSShapeGroup" transform="translate(81.000000, 74.000000) scale(1, -1) translate(-81.000000, -74.000000) "></path>
                <circle id="Oval-8" stroke="#134FC3" stroke-width="2" stroke-linecap="round" stroke-linejoin="round" sketch:type="MSShapeGroup" cx="81" cy="132" r="5"></circle>
                <circle id="Oval-9" stroke="#89A7E1" stroke-width="2" stroke-linecap="round" stroke-linejoin="round" sketch:type="MSShapeGroup" cx="81" cy="75" r="22"></circle>
                <path d="M67,73.2822089 L78.9999999,85.0000015 L110,54" id="Path-9" stroke="#89A7E1" stroke-width="2" stroke-linecap="round" stroke-linejoin="round" sketch:type="MSShapeGroup"></path>
                <path d="M61,143 L101.000001,143 L103.000001,165 L59,165 L61,143 Z" id="Rectangle-14" stroke="#134FC3" stroke-width="2" stroke-linecap="round" stroke-linejoin="round" sketch:type="MSShapeGroup"></path>
                <path d="M53,165 L109,165" id="Path-10" stroke="#134FC3" stroke-width="2" stroke-linecap="round" stroke-linejoin="round" sketch:type="MSShapeGroup"></path>
                <path d="M29,173 L59,173" id="Path-10-Copy-3" stroke="#89A7E1" stroke-width="2" stroke-linecap="round" stroke-linejoin="round" sketch:type="MSShapeGroup"></path>
                <path d="M91,173 L145,173" id="Path-10-Copy-5" stroke="#89A7E1" stroke-width="2" stroke-linecap="round" stroke-linejoin="round" sketch:type="MSShapeGroup"></path>
                <path d="M45,165 L47,165" id="Path-10-Copy" stroke="#89A7E1" stroke-width="2" stroke-linecap="round" stroke-linejoin="round" sketch:type="MSShapeGroup"></path>
                <path d="M65,173 L67,173" id="Path-10-Copy-7" stroke="#89A7E1" stroke-width="2" stroke-linecap="round" stroke-linejoin="round" sketch:type="MSShapeGroup"></path>
                <path d="M73,173 L85,173" id="Path-10-Copy-8" stroke="#89A7E1" stroke-width="2" stroke-linecap="round" stroke-linejoin="round" sketch:type="MSShapeGroup"></path>
                <path d="M115,165 L129,165" id="Path-10-Copy-6" stroke="#89A7E1" stroke-width="2" stroke-linecap="round" stroke-linejoin="round" sketch:type="MSShapeGroup"></path>
                <path d="M17,165 L39,165" id="Path-10-Copy-2" stroke="#89A7E1" stroke-width="2" stroke-linecap="round" stroke-linejoin="round" sketch:type="MSShapeGroup"></path>
                <path d="M141.181804,120.477531 C144.132523,117.879077 147.597961,115.851364 151.405498,114.567013 L152.669741,106.981556 C152.852138,105.887173 153.894514,105 154.99406,105 L167.00594,105 C168.107229,105 169.147065,105.882389 169.330259,106.981556 L170.594502,114.567013 C174.402026,115.85136 177.867453,117.879063 180.818166,120.477504 L188.027772,117.776537 C189.066734,117.387306 190.356236,117.846444 190.90601,118.798679 L196.911949,129.201272 C197.462594,130.155016 197.218341,131.496735 196.358031,132.20497 L190.418871,137.09428 C190.800058,139.00369 191,140.978495 191,143 C191,145.021483 190.800062,146.996268 190.418883,148.905658 L196.35806,153.794981 C197.214625,154.500134 197.461751,155.846444 196.911978,156.798679 L190.906038,167.201272 C190.355393,168.155016 189.071304,168.614346 188.0278,168.223414 L180.818213,165.522455 C177.867502,168.120903 174.40208,170.148613 170.594562,171.432967 L169.330316,179.018444 C169.147919,180.112827 168.105543,181 167.005996,181 L154.994117,181 C153.892828,181 152.852992,180.117611 152.669797,179.018444 L151.405558,171.433007 C147.598018,170.148664 144.132575,168.120958 141.181851,165.522511 L133.972284,168.223463 C132.933322,168.612694 131.64382,168.153556 131.094047,167.201321 L125.088107,156.798728 C124.537463,155.844984 124.781716,154.503265 125.642025,153.79503 L131.581137,148.90576 C131.199945,146.996338 131,145.021519 131,143 C131,140.978503 131.19994,139.003705 131.581125,137.094302 L125.641997,132.205019 C124.785432,131.499866 124.538306,130.153556 125.088079,129.201321 L131.094019,118.798728 C131.644663,117.844984 132.928752,117.385654 133.972256,117.776586 L141.181804,120.477531 Z M161,157 C168.731986,157 175,150.731986 175,143 C175,135.268014 168.731986,129 161,129 C153.268014,129 147,135.268014 147,143 C147,150.731986 153.268014,157 161,157 Z" id="Rectangle-63" stroke="#134FC3" stroke-width="2" stroke-linecap="round" stroke-linejoin="round" sketch:type="MSShapeGroup"></path>
                <circle id="Oval-23" stroke="#89A7E1" stroke-width="2" stroke-linecap="round" stroke-linejoin="round" sketch:type="MSShapeGroup" cx="161" cy="143" r="20"></circle>
            </g>
        </g>
    </g>
</svg>