<?xml version="1.0" encoding="UTF-8" standalone="no"?>
<svg width="80px" height="80px" viewBox="0 0 80 80" version="1.1" xmlns="http://www.w3.org/2000/svg" xmlns:xlink="http://www.w3.org/1999/xlink" xmlns:sketch="http://www.bohemiancoding.com/sketch/ns">
    <!-- Generator: Sketch 3.4.4 (17249) - http://www.bohemiancoding.com/sketch -->
    <title>4</title>
    <desc>Created with Sketch.</desc>
    <defs></defs>
    <g id="Page-1" stroke="none" stroke-width="1" fill="none" fill-rule="evenodd" sketch:type="MSPage">
        <g id="Small" sketch:type="MSArtboardGroup" transform="translate(-160.000000, -240.000000)">
            <g id="4" sketch:type="MSLayerGroup" transform="translate(160.000000, 240.000000)">
                <rect id="Rectangle-22" opacity="0" fill="#D8D8D8" sketch:type="MSShapeGroup" x="0" y="0" width="80" height="80"></rect>
                <path d="M47.5,63 L4.99165754,63 C3.89169545,63 3,62.0976918 3,61.0069304 L3,8.99306965 C3,7.89232768 3.89572506,7 4.99846785,7 L75.0015322,7 C76.1052555,7 77,7.90230818 77,8.99306965 L77,61.0069304 C77,62.1076723 76.1066027,63 75.0081158,63 L62,63" id="Rectangle-1" stroke="#134FC3" stroke-width="2" stroke-linecap="round" stroke-linejoin="round" sketch:type="MSShapeGroup"></path>
                <path d="M28.5,22 C20.4918711,22 14,28.4918711 14,36.5" id="Oval-1" stroke="#89A7E1" stroke-width="2" stroke-linecap="round" stroke-linejoin="round" sketch:type="MSShapeGroup"></path>
                <path d="M35,33 L50.5,17.5" id="Path-2" stroke="#89A7E1" stroke-width="2" stroke-linecap="round" stroke-linejoin="round" sketch:type="MSShapeGroup"></path>
                <path d="M53,40 L64,18" id="Path-2-Copy" stroke="#89A7E1" stroke-width="2" stroke-linecap="round" stroke-linejoin="round" sketch:type="MSShapeGroup" transform="translate(58.500000, 29.000000) scale(-1, 1) translate(-58.500000, -29.000000) "></path>
                <path d="M45.3924746,60.432385 C44.6234321,59.6413006 44.6335493,58.3664507 45.4165545,57.5834455 L49.5834455,53.4165545 C50.365787,52.634213 51.6300752,52.6300752 52.4124298,53.4124298 L67.5875702,68.5875702 C68.3676336,69.3676336 68.3689179,70.6310821 67.5840751,71.4159249 L63.1616158,75.8383842 C62.3796221,76.6203779 61.1245176,76.615332 60.3532163,75.821924 L45.3924746,60.432385 Z" id="Path-4" stroke="#134FC3" stroke-width="2" stroke-linecap="round" stroke-linejoin="round" sketch:type="MSShapeGroup"></path>
                <circle id="Oval-1" stroke="#134FC3" stroke-width="2" sketch:type="MSShapeGroup" cx="28" cy="36" r="20"></circle>
                <path d="M55,70 L62,63" id="Path-5" stroke="#134FC3" stroke-width="2" sketch:type="MSShapeGroup"></path>
                <path d="M42,50 L47.5,55.5" id="Path-6" stroke="#134FC3" stroke-width="2" sketch:type="MSShapeGroup"></path>
                <circle id="Oval-2" stroke="#89A7E1" stroke-width="2" stroke-linecap="round" stroke-linejoin="round" sketch:type="MSShapeGroup" cx="32" cy="36" r="4"></circle>
                <path d="M65,44 C66.1045695,44 67,43.1045695 67,42 C67,40.8954305 66.1045695,40 65,40 C63.8954305,40 63,40.8954305 63,42 C63,43.1045695 63.8954305,44 65,44 Z" id="Oval-2-Copy-2" stroke="#89A7E1" stroke-width="2" stroke-linecap="round" stroke-linejoin="round" sketch:type="MSShapeGroup"></path>
                <circle id="Oval-2-Copy" stroke="#89A7E1" stroke-width="2" stroke-linecap="round" stroke-linejoin="round" sketch:type="MSShapeGroup" cx="52" cy="16" r="2"></circle>
                <circle id="Oval-2-Copy-4" stroke="#89A7E1" stroke-width="2" stroke-linecap="round" stroke-linejoin="round" sketch:type="MSShapeGroup" cx="52" cy="16" r="2"></circle>
            </g>
        </g>
    </g>
</svg>