<?xml version="1.0" encoding="UTF-8" standalone="no"?>
<svg width="80px" height="80px" viewBox="0 0 80 80" version="1.1" xmlns="http://www.w3.org/2000/svg" xmlns:xlink="http://www.w3.org/1999/xlink" xmlns:sketch="http://www.bohemiancoding.com/sketch/ns">
    <!-- Generator: Sketch 3.4.4 (17249) - http://www.bohemiancoding.com/sketch -->
    <title>5</title>
    <desc>Created with Sketch.</desc>
    <defs></defs>
    <g id="Page-1" stroke="none" stroke-width="1" fill="none" fill-rule="evenodd" sketch:type="MSPage">
        <g id="Small" sketch:type="MSArtboardGroup" transform="translate(-320.000000, -240.000000)">
            <g id="5" sketch:type="MSLayerGroup" transform="translate(320.000000, 240.000000)">
                <rect id="Rectangle-48" opacity="0" fill="#D8D8D8" sketch:type="MSShapeGroup" x="0" y="0" width="80" height="80"></rect>
                <path d="M15,66 L10.9979131,66 C9.89449617,66 9,65.1033397 9,64.0025078 L9,24 L9,24 L25,8 L74.9934007,8 C76.1016149,8 77,8.89826062 77,9.99791312 L77,14" id="Rectangle-1" stroke="#89A7E1" stroke-width="2" stroke-linecap="round" stroke-linejoin="round" sketch:type="MSShapeGroup" transform="translate(43.000000, 37.000000) rotate(-270.000000) translate(-43.000000, -37.000000) "></path>
                <path d="M56,15 L56,15 L56,3 L72,19 L60,19" id="Rectangle-8" stroke="#89A7E1" stroke-width="2" stroke-linecap="round" stroke-linejoin="round" sketch:type="MSShapeGroup"></path>
                <path d="M50,9 L66,25 L66,74.9934007 C66,76.1016149 65.0976918,77 64.0069304,77 L11.9930696,77 C10.8923277,77 10,76.102797 10,75.0017157 L10,10.9982843 C10,9.89466234 10.8915398,9 11.9972916,9 L50,9 Z" id="Rectangle-1" stroke="#134FC3" stroke-width="2" stroke-linecap="round" stroke-linejoin="round" sketch:type="MSShapeGroup"></path>
                <path d="M50,9 L66,25 L51.9940603,25 C50.8927712,25 50,24.1054862 50,23.0059397 L50,9 Z" id="Rectangle-8-Copy" stroke="#134FC3" stroke-width="2" stroke-linecap="round" stroke-linejoin="round" sketch:type="MSShapeGroup"></path>
                <rect id="Rectangle-44" stroke="#89A7E1" stroke-width="2" stroke-linecap="round" stroke-linejoin="round" sketch:type="MSShapeGroup" x="44" y="31" width="12" height="14"></rect>
                <rect id="Rectangle-44-Copy" stroke="#89A7E1" stroke-width="2" stroke-linecap="round" stroke-linejoin="round" sketch:type="MSShapeGroup" x="20" y="19" width="12" height="26"></rect>
                <rect id="Rectangle-44-Copy-2" stroke="#89A7E1" stroke-width="2" stroke-linecap="round" stroke-linejoin="round" sketch:type="MSShapeGroup" x="32" y="27" width="12" height="18"></rect>
                <path d="M30,55 L58,55" id="Path-25" stroke="#89A7E1" stroke-width="2" stroke-linecap="round" stroke-linejoin="round" sketch:type="MSShapeGroup"></path>
                <path d="M30,65 L58,65" id="Path-25-Copy-2" stroke="#89A7E1" stroke-width="2" stroke-linecap="round" stroke-linejoin="round" sketch:type="MSShapeGroup"></path>
                <path d="M22,57 C23.1045695,57 24,56.1045695 24,55 C24,53.8954305 23.1045695,53 22,53 C20.8954305,53 20,53.8954305 20,55 C20,56.1045695 20.8954305,57 22,57 Z" id="Oval-2-Copy-2" stroke="#89A7E1" stroke-width="2" stroke-linecap="round" stroke-linejoin="round" sketch:type="MSShapeGroup"></path>
                <path d="M22,67 C23.1045695,67 24,66.1045695 24,65 C24,63.8954305 23.1045695,63 22,63 C20.8954305,63 20,63.8954305 20,65 C20,66.1045695 20.8954305,67 22,67 Z" id="Oval-2-Copy-3" stroke="#89A7E1" stroke-width="2" stroke-linecap="round" stroke-linejoin="round" sketch:type="MSShapeGroup"></path>
            </g>
        </g>
    </g>
</svg>