<?xml version="1.0" encoding="UTF-8" standalone="no"?>
<svg width="80px" height="80px" viewBox="0 0 80 80" version="1.1" xmlns="http://www.w3.org/2000/svg" xmlns:xlink="http://www.w3.org/1999/xlink" xmlns:sketch="http://www.bohemiancoding.com/sketch/ns">
    <!-- Generator: Sketch 3.4.4 (17249) - http://www.bohemiancoding.com/sketch -->
    <title>6</title>
    <desc>Created with Sketch.</desc>
    <defs></defs>
    <g id="Page-1" stroke="none" stroke-width="1" fill="none" fill-rule="evenodd" sketch:type="MSPage">
        <g id="Small" sketch:type="MSArtboardGroup" transform="translate(-480.000000, -240.000000)">
            <g id="6" sketch:type="MSLayerGroup" transform="translate(480.000000, 240.000000)">
                <rect id="Rectangle-33" opacity="0" fill="#D8D8D8" sketch:type="MSShapeGroup" x="0" y="0" width="80" height="80"></rect>
                <path d="M19,65 L14.9997073,65 C13.8952994,65 13,64.1084602 13,63.0027084 L13,25 L29,9 L78.9934007,9 C80.1016149,9 81,9.90230818 81,10.9930696 L81,15" id="Rectangle-1" stroke="#89A7E1" stroke-width="2" stroke-linecap="round" stroke-linejoin="round" sketch:type="MSShapeGroup" transform="translate(47.000000, 37.000000) rotate(-270.000000) translate(-47.000000, -37.000000) "></path>
                <path d="M59,15 L59,15 L59,3 L75,19 L63,19" id="Rectangle-8" stroke="#89A7E1" stroke-width="2" stroke-linecap="round" stroke-linejoin="round" sketch:type="MSShapeGroup"></path>
                <path d="M13,39 L13,10.991617 C13,9.89167732 13.8915398,9 14.9972916,9 L53,9 L53,9 L69,25 L69,74.9934007 C69,76.1016149 68.0976918,77 67.0069304,77 L14.9930696,77 C13.8923277,77 13,76.1125667 13,75.000385 L13,67" id="Rectangle-1" stroke="#134FC3" stroke-width="2" stroke-linecap="round" stroke-linejoin="round" sketch:type="MSShapeGroup"></path>
                <path d="M53,9 L69,25 L54.9940603,25 C53.8927712,25 53,24.1054862 53,23.0059397 L53,9 Z" id="Rectangle-8" stroke="#134FC3" stroke-width="2" stroke-linecap="round" stroke-linejoin="round" sketch:type="MSShapeGroup"></path>
                <rect id="Rectangle-11" stroke="#134FC3" stroke-width="2" stroke-linecap="round" stroke-linejoin="round" sketch:type="MSShapeGroup" x="6" y="39" width="14" height="28" rx="2"></rect>
                <path d="M13,63 C14.1045695,63 15,62.1045695 15,61 C15,59.8954305 14.1045695,59 13,59 C11.8954305,59 11,59.8954305 11,61 C11,62.1045695 11.8954305,63 13,63 Z" id="Oval-2-Copy-2" stroke="#89A7E1" stroke-width="2" stroke-linecap="round" stroke-linejoin="round" sketch:type="MSShapeGroup"></path>
                <path d="M20,42 L23,42 L28.8519308,33.6400989 C29.4859919,32.7342973 30,31.1125667 30,30.000385 L30,23.999615 C30,22.8952581 30.8982606,22 31.9979131,22 L33,22 C34.6568542,22 36.46875,23.25 37.0534694,24.8092517 L38.2966333,28.1243554 C38.685092,29.1602453 38.9112567,30.8874333 38.8000385,31.999615 L38,40 L52.0106188,40 C54.2177278,40 55.5893157,41.7381029 55.0716558,43.892526 L50.4663563,63.0590947 C50.2087948,64.1310271 49.1021594,65 48.0083826,65 L19.9999947,65 L20,42 Z" id="Path-8" stroke="#134FC3" stroke-width="2" stroke-linecap="round" stroke-linejoin="round" sketch:type="MSShapeGroup"></path>
            </g>
        </g>
    </g>
</svg>