<?xml version="1.0" encoding="UTF-8" standalone="no"?>
<svg width="80px" height="80px" viewBox="0 0 80 80" version="1.1" xmlns="http://www.w3.org/2000/svg" xmlns:xlink="http://www.w3.org/1999/xlink" xmlns:sketch="http://www.bohemiancoding.com/sketch/ns">
    <!-- Generator: Sketch 3.4.4 (17249) - http://www.bohemiancoding.com/sketch -->
    <title>1</title>
    <desc>Created with Sketch.</desc>
    <defs></defs>
    <g id="Page-1" stroke="none" stroke-width="1" fill="none" fill-rule="evenodd" sketch:type="MSPage">
        <g id="Small" sketch:type="MSArtboardGroup" transform="translate(-160.000000, -80.000000)">
            <g id="1" sketch:type="MSLayerGroup" transform="translate(160.000000, 80.000000)">
                <rect id="Rectangle-26" opacity="0" fill="#D8D8D8" sketch:type="MSShapeGroup" x="0" y="0" width="80" height="80"></rect>
                <rect id="Rectangle-2" stroke="#134FC3" stroke-width="2" sketch:type="MSShapeGroup" x="3" y="3" width="48" height="12" rx="2"></rect>
                <path d="M28,39 L5.00138927,39 C3.8960525,39 3,38.0980496 3,36.9914698 L3,29.0085302 C3,27.8992496 3.89493844,27 5.00138927,27 L40,27" id="Rectangle-2-Copy-2" stroke="#134FC3" stroke-width="2" sketch:type="MSShapeGroup"></path>
                <path d="M25,51 L5.00138927,51 C3.8960525,51 3,50.0980496 3,48.9914698 L3,41.0085302 C3,39.8992496 3.89493844,39 5.00138927,39 L27.5,39" id="Rectangle-2-Copy-3" stroke="#134FC3" stroke-width="2" sketch:type="MSShapeGroup"></path>
                <path d="M28,63 L5.00138927,63 C3.8960525,63 3,62.0980496 3,60.9914698 L3,53.0085302 C3,51.8992496 3.89493844,51 5.00138927,51 L25,51" id="Rectangle-2-Copy-4" stroke="#134FC3" stroke-width="2" sketch:type="MSShapeGroup"></path>
                <path d="M41,27 L5.00239962,27 C3.89650485,27 3,26.0980496 3,24.9914698 L3,17.0085302 C3,15.8992496 3.89493844,15 5.00138927,15 L48.9986107,15 C50.1039475,15 51,15.9019504 51,17.0085302 L51,25" id="Rectangle-2-Copy" stroke="#134FC3" stroke-width="2" sketch:type="MSShapeGroup"></path>
                <circle id="Oval-1" stroke="#134FC3" stroke-width="2" sketch:type="MSShapeGroup" cx="51" cy="51" r="26"></circle>
                <path d="M57,9 L65.6513555,18.5164911 C66.3961913,19.3358104 67.6030248,19.3366727 68.3486445,18.5164911 L77,9 L57,9 Z" id="Path-7" stroke="#89A7E1" stroke-width="2" stroke-linecap="round" stroke-linejoin="round" sketch:type="MSShapeGroup"></path>
                <circle id="Oval-1" stroke="#89A7E1" stroke-width="2" stroke-linecap="round" stroke-linejoin="round" sketch:type="MSShapeGroup" cx="51" cy="51" r="20"></circle>
                <path id="Path-25" stroke="#979797" sketch:type="MSShapeGroup" d=""></path>
                <g id="Oval-53-+-Path-96" transform="translate(44.000000, 38.000000)" stroke="#134FC3" stroke-width="2" sketch:type="MSShapeGroup" stroke-linecap="round" stroke-linejoin="round">
                    <path d="M2,22 L9,22 C11.7614237,22 14,19.7614237 14,17 C14,14.2385763 11.7614237,12 9,12 L5,12 C2.23857625,12 0,9.76142375 0,7 C0,4.23857625 2.23857625,2 5,2 L12,2" id="Oval-53"></path>
                    <path d="M7,0 L7,24" id="Path-96" fill="#FFFFFF"></path>
                </g>
            </g>
        </g>
    </g>
</svg>