<?xml version="1.0" encoding="utf-8"?>
<!DOCTYPE svg PUBLIC "-//W3C//DTD SVG 1.1//EN" "http://www.w3.org/Graphics/SVG/1.1/DTD/svg11.dtd">
<svg version="1.1" baseProfile="full"
 xmlns="http://www.w3.org/2000/svg"
 xmlns:xlink="http://www.w3.org/1999/xlink"
 xmlns:ev="http://www.w3.org/2001/xml-events" 
  height="15px" 
  width="18px" 
>
<path fill="rgb( 255, 255, 255 )"
 d="M17.357,2.36899999999969 C16.73,2.64000000000033 16.057,2.82399999999961 15.3489999999999,2.90599999999995 C16.0709999999999,2.48400000000038 16.626,1.81400000000031 16.886,1.01500000000033 C16.211,1.40800000000036 15.463,1.69200000000001 14.6659999999999,1.84500000000025 C14.029,1.18099999999959 13.1199999999999,0.76699999999983 12.115,0.76699999999983 C10.1849999999999,0.76699999999983 8.61899999999991,2.29600000000028 8.61899999999991,4.18299999999999 C8.61899999999991,4.45100000000002 8.65000000000009,4.71200000000044 8.71000000000004,4.96200000000044 C5.80500000000006,4.81900000000041 3.22900000000004,3.46000000000004 1.50500000000011,1.39199999999983 C1.20299999999997,1.89599999999973 1.03099999999995,2.48300000000017 1.03099999999995,3.10900000000038 C1.03099999999995,4.29500000000007 1.64799999999991,5.34100000000035 2.58600000000001,5.95399999999972 C2.01299999999992,5.93599999999969 1.47399999999993,5.78200000000015 1.00299999999993,5.52599999999984 C1.00299999999993,5.53999999999996 1.00299999999993,5.55500000000029 1.00299999999993,5.56900000000041 C1.00299999999993,7.22500000000036 2.20800000000008,8.60599999999977 3.80700000000002,8.92000000000007 C3.5139999999999,8.99799999999959 3.20499999999993,9.03999999999996 2.88599999999997,9.03999999999996 C2.66100000000006,9.03999999999996 2.44200000000001,9.01800000000003 2.22800000000007,8.97900000000027 C2.673,10.3360000000002 3.96399999999994,11.3239999999996 5.49399999999991,11.3519999999999 C4.29700000000003,12.268 2.78999999999996,12.8149999999996 1.15200000000004,12.8149999999996 C0.86999999999989,12.8149999999996 0.5920000000001,12.799 0.31899999999996,12.7669999999998 C1.86599999999999,13.7359999999999 3.70299999999997,14.3019999999997 5.67699999999991,14.3019999999997 C12.107,14.3019999999997 15.623,9.09500000000025 15.623,4.57899999999972 C15.623,4.43099999999959 15.6199999999999,4.28399999999965 15.6130000000001,4.13699999999972 C16.296,3.65599999999995 16.8889999999999,3.05299999999988 17.357,2.36899999999969 Z "/>
</svg>
