<?xml version="1.0" encoding="utf-8"?>
<!DOCTYPE svg PUBLIC "-//W3C//DTD SVG 1.1//EN" "http://www.w3.org/Graphics/SVG/1.1/DTD/svg11.dtd">
<svg version="1.1" baseProfile="full"
 xmlns="http://www.w3.org/2000/svg"
 xmlns:xlink="http://www.w3.org/1999/xlink"
 xmlns:ev="http://www.w3.org/2001/xml-events" 
  height="19px" 
  width="11px" 
>
<path fill="rgb( 255, 255, 255 )"
 d="M6.6690000000001,18.8860000000004 C6.6690000000001,18.8860000000004 6.6690000000001,10.3540000000003 6.6690000000001,10.3540000000003 C6.6690000000001,10.3540000000003 9.59799999999996,10.3540000000003 9.59799999999996,10.3540000000003 C9.59799999999996,10.3540000000003 10.037,7.02999999999975 10.037,7.02999999999975 C10.037,7.02999999999975 6.6690000000001,7.02999999999975 6.6690000000001,7.02999999999975 C6.6690000000001,7.02999999999975 6.6690000000001,4.90700000000015 6.6690000000001,4.90700000000015 C6.6690000000001,3.94400000000041 6.94200000000001,3.28799999999956 8.35400000000004,3.28799999999956 C8.35400000000004,3.28799999999956 10.1559999999999,3.28700000000026 10.1559999999999,3.28700000000026 C10.1559999999999,3.28700000000026 10.1559999999999,0.3130000000001 10.1559999999999,0.3130000000001 C9.84400000000005,0.27300000000014 8.77500000000009,0.18199999999979 7.53099999999995,0.18199999999979 C4.93399999999997,0.18199999999979 3.15599999999995,1.73199999999997 3.15599999999995,4.57700000000023 C3.15599999999995,4.57700000000023 3.15599999999995,7.02999999999975 3.15599999999995,7.02999999999975 C3.15599999999995,7.02999999999975 0.21900000000005,7.02999999999975 0.21900000000005,7.02999999999975 C0.21900000000005,7.02999999999975 0.21900000000005,10.3540000000003 0.21900000000005,10.3540000000003 C0.21900000000005,10.3540000000003 3.15599999999995,10.3540000000003 3.15599999999995,10.3540000000003 C3.15599999999995,10.3540000000003 3.15599999999995,18.8860000000004 3.15599999999995,18.8860000000004 C3.15599999999995,18.8860000000004 6.6690000000001,18.8860000000004 6.6690000000001,18.8860000000004 Z "/>
</svg>
